HIERARCHY
ROOT hip
{
	OFFSET 0.000000 0.000000 0.000000 
	CHANNELS 6 Xposition Yposition Zposition Xrotation Zrotation Yrotation
	JOINT abdomen
	{
		OFFSET 0.000000 3.402643 0.000000 
		CHANNELS 3 Xrotation Zrotation Yrotation
		JOINT chest
		{
			OFFSET 0.000000 8.438565 -0.680529 
			CHANNELS 3 Xrotation Zrotation Yrotation
			JOINT neck
			{
				OFFSET 0.000000 10.207942 -0.272212 
				CHANNELS 3 Xrotation Zrotation Yrotation
				JOINT head
				{
					OFFSET 0.000000 3.130431 0.000000 
					CHANNELS 3 Xrotation Zrotation Yrotation
					End Site
					{
						OFFSET 0.000000 3.130435 0.000000 
					}
				}
			}
			JOINT lCollar
			{
				OFFSET 3.470700 6.669187 -0.816635 
				CHANNELS 3 Yrotation Zrotation Xrotation
				JOINT lShldr
				{
					OFFSET 3.198488 0.000000 0.000000 
					CHANNELS 3 Zrotation Yrotation Xrotation
					JOINT lForeArm
					{
						OFFSET 10.139888 0.000000 0.000000 
						CHANNELS 3 Yrotation Zrotation Xrotation
						JOINT lHand
						{
							OFFSET 8.370511 0.000000 0.000000 
							CHANNELS 3 Zrotation Yrotation Xrotation
							End Site
							{
								OFFSET 4.083176 0.000000 0.000000 
							}
						}
					}
				}
			}
			JOINT rCollar
			{
				OFFSET -3.470700 6.669187 -0.816635 
				CHANNELS 3 Yrotation Zrotation Xrotation
				JOINT rShldr
				{
					OFFSET -3.198488 0.000000 0.000000 
					CHANNELS 3 Zrotation Yrotation Xrotation
					JOINT rForeArm
					{
						OFFSET -10.139888 0.000000 0.000000 
						CHANNELS 3 Yrotation Zrotation Xrotation
						JOINT rHand
						{
							OFFSET -8.370511 0.000000 0.000000 
							CHANNELS 3 Zrotation Yrotation Xrotation
							End Site
							{
								OFFSET -4.083176 0.000000 0.000000 
							}
						}
					}
				}
			}
		}
	}
	JOINT lThigh
	{
		OFFSET 5.308129 -1.633274 1.361059 
		CHANNELS 3 Xrotation Zrotation Yrotation
		JOINT lShin
		{
			OFFSET -2.041588 -20.007561 0.000000 
			CHANNELS 3 Xrotation Zrotation Yrotation
			JOINT lFoot
			{
				OFFSET 0.000000 -19.190928 -1.224953 
				CHANNELS 3 Xrotation Yrotation Zrotation
				End Site
				{
					OFFSET 0.000000 -2.449906 4.627600 
				}
			}
		}
	}
	JOINT rThigh
	{
		OFFSET -5.308129 -1.633274 1.361059 
		CHANNELS 3 Xrotation Zrotation Yrotation
		JOINT rShin
		{
			OFFSET 2.041588 -20.007561 0.000000 
			CHANNELS 3 Xrotation Zrotation Yrotation
			JOINT rFoot
			{
				OFFSET 0.000000 -19.190928 -1.224953 
				CHANNELS 3 Xrotation Yrotation Zrotation
				End Site
				{
					OFFSET 0.000000 -2.449906 4.627600 
				}
			}
		}
	}
}
MOTION
Frames: 11
Frame Time: 0.016667
-1.616457 45.388779 30.811947 -3.730810 -0.769850 -24.861900 -22.190800 -0.327870 1.683490 14.608900 0.738193 0.723883 -23.337200 4.586170 -5.065710 -0.818033 7.668230 -1.582540 2.000000 -2.000000 0.000000 66.621201 -37.958801 86.736000 37.910500 -0.322714 0.084061 0.045111 -0.012376 -141.345993 -2.000000 2.000000 0.000000 -63.260502 41.715801 78.056702 -29.560900 0.333769 0.067452 -0.054695 -0.009756 -133.434998 -0.345804 -7.952758 -5.119912 28.674477 3.227366 2.000520 -6.625823 11.326692 1.532083 -1.748633 5.990775 15.627126 33.328648 -3.151133 -2.297760 -12.581057 -18.459953 -2.887024 
-1.477551 45.370018 30.572781 -3.681680 -0.253382 -24.983700 -22.016199 -0.521490 1.695610 14.520700 0.903169 0.685767 -24.631901 4.890360 -5.391720 -1.371060 7.779500 -1.745840 2.000000 -2.000000 0.000000 61.811401 -37.636700 91.660202 42.324600 -0.315929 0.092112 0.045366 -0.015319 -142.399994 -2.000000 2.000000 0.000000 -62.470901 43.100700 74.771400 -29.678101 0.333630 0.067695 -0.056302 -0.014885 -128.084000 -0.494373 -8.208995 -5.229987 27.869610 3.204498 1.964714 -6.510824 10.446929 1.444245 -2.580728 4.855088 14.616650 33.604649 -3.142940 -2.312026 -12.990072 -15.873712 -2.485857 
-1.359607 45.475006 30.325300 -3.759770 0.097446 -25.358000 -21.829500 -0.556405 1.853050 14.325000 1.106700 0.748326 -25.801800 5.183610 -5.699810 -1.895190 7.919340 -1.900530 2.000000 -2.000000 0.000000 56.327900 -37.411201 96.613403 46.660599 -0.308680 0.099490 0.045739 -0.018799 -143.649994 -2.000000 2.000000 0.000000 -60.984402 44.202801 72.680801 -30.381201 0.332791 0.069147 -0.057636 -0.022313 -125.389000 -0.501559 -8.389630 -5.501770 27.168304 3.215030 1.916706 -5.724817 9.830617 1.213255 -3.267627 3.871342 14.549840 33.899483 -3.143934 -2.328149 -12.553446 -13.303178 -1.837678 
-1.305741 45.663906 30.112642 -3.468850 -1.969050 -25.984301 -21.550200 0.200868 2.009850 14.013100 0.766459 0.947249 -26.197500 5.218830 -5.749880 -2.141910 7.935710 -1.946010 2.000000 -2.000000 0.000000 49.826900 -37.184399 102.253998 51.016102 -0.300858 0.106328 0.046411 -0.023813 -145.457001 -2.000000 2.000000 0.000000 -58.799999 45.139801 72.009300 -31.738600 0.331120 0.071922 -0.057996 -0.024026 -124.764000 -0.852587 -6.319109 -5.900072 28.782997 3.306442 1.988957 -5.929911 9.769897 1.194578 -2.436012 5.559544 15.827118 32.531269 -3.159227 -2.251320 -10.733490 -11.809770 -1.058669 
-1.245224 45.915016 29.924700 -2.745620 -1.882600 -26.677401 -21.555300 0.257252 2.355090 14.150200 0.456118 1.140190 -25.545401 4.682040 -5.263580 -1.870620 7.511590 -1.825450 2.000000 -2.000000 0.000000 42.631802 -36.526199 108.436996 55.596199 -0.292097 0.112856 0.046890 -0.026811 -146.541000 -2.000000 2.000000 0.000000 -55.023300 45.102299 74.194000 -33.721100 0.328562 0.075901 -0.058019 -0.024133 -124.724998 -1.680537 -5.981037 -5.436222 28.377010 3.245974 1.988328 -4.643746 9.883807 1.062349 -3.410743 5.408991 17.163479 32.140121 -3.136485 -2.230376 -8.912375 -10.144173 -0.408830 
-1.175844 46.152866 29.711033 -2.383030 -0.770817 -27.194500 -21.665001 0.199409 2.200660 14.110400 0.960686 1.034060 -25.433399 4.272420 -4.547670 -1.877930 7.288050 -1.530380 2.000000 -2.000000 0.000000 34.029499 -34.556702 115.761002 60.156799 -0.282884 0.118640 0.047177 -0.028454 -147.136993 -2.000000 2.000000 0.000000 -52.017399 45.220901 76.642197 -36.025799 0.325418 0.080413 -0.057893 -0.023544 -124.939003 -2.219296 -6.807934 -5.449700 26.812155 3.152830 1.926129 -2.804927 10.496531 0.904727 -4.979157 4.160418 17.835724 32.499214 -3.098064 -2.283244 -7.521767 -8.213210 0.038198 
-1.115641 46.350517 29.479504 -2.128910 0.136624 -27.632000 -21.676100 0.308159 2.073510 14.011500 1.484410 0.962577 -25.681200 3.725320 -3.964480 -2.023730 7.121320 -1.306990 2.000000 -2.000000 0.000000 25.186100 -31.804300 122.912003 64.815002 -0.273028 0.123772 0.047310 -0.029180 -147.399994 -2.000000 2.000000 0.000000 -48.851200 44.539001 80.116203 -38.515999 0.321820 0.085141 -0.057507 -0.021669 -125.623001 -2.674639 -7.527136 -5.649247 25.576693 3.098279 1.860851 -1.430853 11.279418 0.769109 -6.380640 3.076465 17.972628 32.974537 -3.060347 -2.306141 -6.372646 -6.283634 0.385827 
-1.082664 46.480560 29.237751 -1.748090 -0.409965 -28.112499 -21.366100 0.868743 2.512370 14.002300 1.251530 1.262500 -26.066401 2.768030 -3.861600 -2.168620 6.876960 -1.357580 2.000000 -2.000000 0.000000 16.717800 -29.139299 129.110001 69.717300 -0.262243 0.128290 0.047360 -0.029449 -147.498001 -2.000000 2.000000 0.000000 -44.918201 41.991699 85.052101 -41.045300 0.317959 0.089779 -0.056816 -0.017987 -126.960999 -3.186442 -6.828892 -5.691865 25.860909 3.106587 1.859152 -1.347660 11.863019 0.814705 -6.757400 3.341002 17.715597 32.515823 -3.030613 -2.293961 -5.130690 -4.536725 0.666660 
-1.105119 46.494049 28.998583 -1.475520 -2.011050 -28.844700 -20.949699 1.386140 2.334570 13.914900 1.067010 1.242970 -26.081900 2.782390 -3.123550 -2.176560 6.702100 -1.036010 2.000000 -2.000000 0.000000 8.886470 -25.457399 135.367996 72.402901 -0.256182 0.130369 0.047585 -0.030631 -147.927994 -2.000000 2.000000 0.000000 -42.309299 39.892502 88.515602 -43.633202 0.313801 0.094343 -0.055710 -0.010715 -129.587997 -3.378743 -5.198628 -5.599759 27.253180 3.171823 1.944738 -2.523225 12.213220 1.041410 -6.063613 4.765858 18.245197 31.393608 -3.040712 -2.223415 -4.251215 -3.622033 0.864270 
-1.144412 46.390095 28.773346 -1.339100 -2.430980 -29.552601 -20.671000 1.650820 2.122510 13.914300 1.309510 1.156150 -26.029900 2.774280 -2.497110 -2.175230 6.575880 -0.748959 2.000000 -2.000000 0.000000 1.311500 -21.394400 141.143005 74.053299 -0.252412 0.131505 0.047755 -0.031489 -148.240005 -2.000000 2.000000 0.000000 -40.674198 38.642601 89.873001 -45.264099 0.311076 0.097121 -0.055412 -0.008245 -130.475998 -3.345219 -4.722816 -5.872432 27.403648 3.227598 1.936473 -3.876942 12.722674 1.343646 -6.142211 5.111305 18.907103 31.229103 -3.024067 -2.240575 -4.459186 -2.342557 0.998792 
-1.198728 46.152363 28.580462 -1.289800 -1.942870 -30.268801 -20.535200 1.624080 2.051150 14.069700 1.620420 1.104910 -25.928600 2.540650 -2.007490 -2.173150 6.372000 -0.570718 2.000000 -2.000000 0.000000 -5.568460 -17.380400 146.373001 74.824799 -0.250638 0.131998 0.047990 -0.032642 -148.660004 -2.000000 2.000000 0.000000 -39.256500 37.587898 90.435699 -46.308998 0.309289 0.098860 -0.055396 -0.008109 -130.524994 -3.143958 -5.110245 -6.327813 26.573378 3.238667 1.869790 -5.536199 13.236241 1.809080 -6.783388 4.605699 19.397820 31.780088 -3.011757 -2.250010 -5.767226 -0.801034 1.150565 
